PathFileType	4	(X/Y/Z)	D:\TRACE\v60_Jaco2_6-2-23\JustBodyDRS_Motion3_10-v60.trc
DataRate	CameraRate	NumFrames	NumMarkers	Units	OrigDataRate	OrigDataStartFrame	OrigNumFrames
100.00	100.00	      14	9	mm	100.00	876	      7000
Frame#	Time	front left toe			Front right toe			aft left toe			aft right toe			Arm			FL body			FR body			AL Body			AR Body			
		X1	Y1	Z1	X2	Y2	Z2	X3	Y3	Z3	X4	Y4	Z4	X5	Y5	Z5	X6	Y6	Z6	X7	Y7	Z7	X8	Y8	Z8	X9	Y9	Z9	

876	8.750	-193.89926	8.11956	-288.45761	205.32793	2.74129	-295.39456	-159.77986	25.35394	333.64777	190.36353	34.37678	324.74692	20.93490	1154.78455	-393.75665	-75.91762	505.87836	-461.89282	82.38995	506.77881	-463.74451	-59.18448	572.11310	479.46307	92.79787	563.48145	478.56305	
877	8.760	-193.74898	4.37831	-290.32928	205.67325	2.82292	-295.33221	-159.93828	25.82110	333.51535	189.92979	28.31570	323.22821	20.87357	1155.00854	-394.08890	-76.15280	506.09988	-462.79575	82.88279	506.68787	-464.43933	-59.56530	572.15271	479.29840	92.30050	563.47034	477.97794	
878	8.770	-194.74046	4.98984	-290.83945	205.81549	2.87391	-295.33969	-159.73633	25.82009	333.45853	190.22229	27.93230	320.90039	20.80927	1155.24084	-394.54825	-75.91207	506.33499	-463.08963	82.88329	506.88113	-464.87009	-60.61631	572.32617	478.48071	91.40939	563.63336	477.30014	
879	8.780	-195.10324	3.81259	-290.85648	205.88159	3.11014	-295.52969	-159.62212	25.98296	333.15833	191.53908	26.24849	321.82343	21.12082	1155.56470	-395.32889	-75.72125	506.39169	-463.58307	82.91157	507.09390	-465.22934	-61.61665	573.45935	478.02512	90.34818	564.79059	477.09879	
880	8.790	-194.26941	2.81933	-290.18600	205.83842	3.40026	-295.68497	-159.45142	26.17569	333.21994	192.06786	26.99089	321.39853	21.67300	1155.85559	-396.13657	-75.64335	506.33920	-464.07581	83.00219	507.33585	-465.49991	-62.37432	575.27570	477.66068	89.46238	567.15063	476.83438	
881	8.800	-193.76213	2.90791	-289.91904	206.73431	5.78239	-295.27234	-159.20200	28.69664	333.42392	191.92334	26.59377	322.57874	22.30443	1156.23450	-397.34818	-75.67803	506.68283	-464.58994	83.43092	507.37045	-465.65305	-63.38886	576.74255	477.03879	88.71653	568.83783	476.48526	
882	8.810	-193.56682	2.89215	-290.63330	203.35464	7.86668	-292.01910	-157.01016	31.72724	335.99478	191.80415	26.41652	322.01517	22.15886	1156.49878	-399.45935	-75.33396	507.24139	-464.94220	82.81873	508.24393	-465.65140	-64.26698	577.97510	476.68259	88.09303	570.04645	476.12244	
883	8.820	-193.46362	3.29814	-290.46262	200.08948	14.10017	-289.32065	-153.76613	39.28043	336.01575	192.01144	26.75378	322.04022	21.04500	1156.68250	-401.50214	-74.78826	507.46011	-465.48096	83.39433	508.51810	-466.16406	-64.82844	578.64972	476.05725	87.39933	570.60571	475.77859	
884	8.830	-193.25835	3.03464	-290.46878	197.77585	23.20745	-289.26425	-152.15302	47.92928	336.27820	191.99979	26.56788	321.93295	19.67727	1156.90466	-402.72696	-74.76633	507.65131	-466.34711	84.41493	508.57498	-466.75195	-65.52225	578.86407	475.47696	86.94620	570.98969	475.40103	
885	8.840	-193.05544	2.44623	-290.60587	196.27052	34.32791	-289.98215	-152.84419	59.73670	334.85321	192.04736	26.63962	321.92673	18.89380	1156.85876	-403.19174	-74.77279	507.42163	-466.89029	84.50861	508.24777	-467.19287	-66.00848	579.02362	474.99203	86.15658	571.26495	474.86899	
886	8.850	-192.82492	2.15402	-290.41562	196.07431	45.71228	-291.91983	-154.63136	71.19805	332.80414	192.11461	26.56668	322.03870	18.09546	1156.74121	-403.31116	-74.64104	506.94009	-467.17963	84.12104	507.97156	-467.86951	-66.13075	578.91626	474.33582	86.08900	571.33740	474.14722	
887	8.860	-192.55164	1.98609	-290.19168	197.93892	59.02760	-293.68802	-157.03976	83.38967	330.09528	192.47510	26.19983	322.01718	18.39576	1156.44409	-403.25659	-75.02654	506.73087	-467.71307	83.71737	507.75424	-468.49417	-65.98553	578.38129	473.61780	86.11692	570.74268	473.62494	
888	8.870	-192.47321	1.76754	-290.41321	198.65948	71.12976	-296.23761	-160.47580	95.53728	327.73087	193.14485	25.81782	321.93030	19.12722	1155.97498	-403.12692	-75.63299	506.50504	-468.38800	83.23842	507.66702	-469.03857	-65.81845	577.78943	473.18533	86.15979	570.06830	472.90491	
889	8.880	-192.40169	1.65030	-290.29892	199.56975	83.68630	-298.26691	-162.93820	106.74197	325.24289	193.80722	25.69413	321.97037	19.19132	1155.62866	-403.16220	-76.16483	506.34988	-468.78021	82.79814	507.68082	-469.55771	-65.54521	576.74835	472.87155	86.62658	569.21472	472.25143	
